<mxfile host="app.diagrams.net" modified="2023-09-23T21:50:53.425Z" agent="Mozilla/5.0 (Windows NT 10.0; Win64; x64) AppleWebKit/537.36 (KHTML, like Gecko) Chrome/117.0.0.0 Safari/537.36" etag="oV3ALIjf5G9NZ8oeS0yY" version="21.7.5" type="device">
  <diagram name="Page-1" id="k_aHj_ZKno0M6X0sjLGQ">
    <mxGraphModel dx="1461" dy="613" grid="1" gridSize="10" guides="1" tooltips="1" connect="1" arrows="1" fold="1" page="1" pageScale="1" pageWidth="850" pageHeight="1100" math="0" shadow="0">
      <root>
        <mxCell id="0" />
        <mxCell id="1" parent="0" />
        <mxCell id="9qVkPfcaKSvjibxy3Bsk-36" value="" style="whiteSpace=wrap;html=1;aspect=fixed;" vertex="1" parent="1">
          <mxGeometry x="120" width="590" height="590" as="geometry" />
        </mxCell>
        <mxCell id="9qVkPfcaKSvjibxy3Bsk-24" value="" style="edgeStyle=orthogonalEdgeStyle;rounded=0;orthogonalLoop=1;jettySize=auto;html=1;" edge="1" parent="1" source="9qVkPfcaKSvjibxy3Bsk-2" target="9qVkPfcaKSvjibxy3Bsk-23">
          <mxGeometry relative="1" as="geometry" />
        </mxCell>
        <mxCell id="9qVkPfcaKSvjibxy3Bsk-2" value="Start" style="html=1;dashed=0;whiteSpace=wrap;shape=mxgraph.dfd.start" vertex="1" parent="1">
          <mxGeometry x="390" y="40" width="80" height="30" as="geometry" />
        </mxCell>
        <mxCell id="9qVkPfcaKSvjibxy3Bsk-11" value="" style="edgeStyle=orthogonalEdgeStyle;rounded=0;orthogonalLoop=1;jettySize=auto;html=1;" edge="1" parent="1" source="9qVkPfcaKSvjibxy3Bsk-3" target="9qVkPfcaKSvjibxy3Bsk-10">
          <mxGeometry relative="1" as="geometry" />
        </mxCell>
        <mxCell id="9qVkPfcaKSvjibxy3Bsk-3" value="Enter a month number:" style="shape=parallelogram;perimeter=parallelogramPerimeter;whiteSpace=wrap;html=1;fixedSize=1;dashed=0;" vertex="1" parent="1">
          <mxGeometry x="370" y="180" width="120" height="60" as="geometry" />
        </mxCell>
        <mxCell id="9qVkPfcaKSvjibxy3Bsk-14" value="" style="edgeStyle=orthogonalEdgeStyle;rounded=0;orthogonalLoop=1;jettySize=auto;html=1;" edge="1" parent="1" source="9qVkPfcaKSvjibxy3Bsk-5" target="9qVkPfcaKSvjibxy3Bsk-13">
          <mxGeometry relative="1" as="geometry" />
        </mxCell>
        <mxCell id="9qVkPfcaKSvjibxy3Bsk-34" value="Yes" style="edgeLabel;html=1;align=center;verticalAlign=middle;resizable=0;points=[];" vertex="1" connectable="0" parent="9qVkPfcaKSvjibxy3Bsk-14">
          <mxGeometry x="-0.159" y="1" relative="1" as="geometry">
            <mxPoint x="-2" y="-14" as="offset" />
          </mxGeometry>
        </mxCell>
        <mxCell id="9qVkPfcaKSvjibxy3Bsk-18" value="" style="edgeStyle=orthogonalEdgeStyle;rounded=0;orthogonalLoop=1;jettySize=auto;html=1;" edge="1" parent="1" source="9qVkPfcaKSvjibxy3Bsk-5" target="9qVkPfcaKSvjibxy3Bsk-17">
          <mxGeometry relative="1" as="geometry" />
        </mxCell>
        <mxCell id="9qVkPfcaKSvjibxy3Bsk-35" value="No" style="edgeLabel;html=1;align=center;verticalAlign=middle;resizable=0;points=[];" vertex="1" connectable="0" parent="9qVkPfcaKSvjibxy3Bsk-18">
          <mxGeometry x="-0.0952" y="-2" relative="1" as="geometry">
            <mxPoint y="-13" as="offset" />
          </mxGeometry>
        </mxCell>
        <mxCell id="9qVkPfcaKSvjibxy3Bsk-5" value="Is month&lt;br&gt;&amp;nbsp;value valid?" style="rhombus;whiteSpace=wrap;html=1;dashed=0;" vertex="1" parent="1">
          <mxGeometry x="370" y="375" width="100" height="105" as="geometry" />
        </mxCell>
        <mxCell id="9qVkPfcaKSvjibxy3Bsk-12" style="edgeStyle=orthogonalEdgeStyle;rounded=0;orthogonalLoop=1;jettySize=auto;html=1;exitX=0.5;exitY=1;exitDx=0;exitDy=0;entryX=0.5;entryY=0;entryDx=0;entryDy=0;" edge="1" parent="1" source="9qVkPfcaKSvjibxy3Bsk-10" target="9qVkPfcaKSvjibxy3Bsk-5">
          <mxGeometry relative="1" as="geometry" />
        </mxCell>
        <mxCell id="9qVkPfcaKSvjibxy3Bsk-10" value="check if month is valid&lt;br&gt;call is_month_valid function" style="whiteSpace=wrap;html=1;dashed=0;" vertex="1" parent="1">
          <mxGeometry x="365" y="290" width="130" height="50" as="geometry" />
        </mxCell>
        <mxCell id="9qVkPfcaKSvjibxy3Bsk-16" style="edgeStyle=orthogonalEdgeStyle;rounded=0;orthogonalLoop=1;jettySize=auto;html=1;exitX=0.5;exitY=1;exitDx=0;exitDy=0;" edge="1" parent="1" source="9qVkPfcaKSvjibxy3Bsk-13" target="9qVkPfcaKSvjibxy3Bsk-15">
          <mxGeometry relative="1" as="geometry" />
        </mxCell>
        <mxCell id="9qVkPfcaKSvjibxy3Bsk-13" value="return month &lt;br&gt;to main" style="shape=parallelogram;perimeter=parallelogramPerimeter;whiteSpace=wrap;html=1;fixedSize=1;dashed=0;" vertex="1" parent="1">
          <mxGeometry x="525" y="397.5" width="120" height="60" as="geometry" />
        </mxCell>
        <mxCell id="9qVkPfcaKSvjibxy3Bsk-15" value="End" style="html=1;dashed=0;whiteSpace=wrap;shape=mxgraph.dfd.start" vertex="1" parent="1">
          <mxGeometry x="545" y="520" width="80" height="30" as="geometry" />
        </mxCell>
        <mxCell id="9qVkPfcaKSvjibxy3Bsk-17" value="Display: &lt;br&gt;invalid&amp;nbsp;input" style="shape=parallelogram;perimeter=parallelogramPerimeter;whiteSpace=wrap;html=1;fixedSize=1;dashed=0;" vertex="1" parent="1">
          <mxGeometry x="200" y="397.5" width="120" height="60" as="geometry" />
        </mxCell>
        <mxCell id="9qVkPfcaKSvjibxy3Bsk-32" style="edgeStyle=orthogonalEdgeStyle;rounded=0;orthogonalLoop=1;jettySize=auto;html=1;exitX=0.5;exitY=1;exitDx=0;exitDy=0;" edge="1" parent="1" source="9qVkPfcaKSvjibxy3Bsk-23" target="9qVkPfcaKSvjibxy3Bsk-3">
          <mxGeometry relative="1" as="geometry" />
        </mxCell>
        <mxCell id="9qVkPfcaKSvjibxy3Bsk-23" value="" style="ellipse;whiteSpace=wrap;html=1;dashed=0;" vertex="1" parent="1">
          <mxGeometry x="420" y="120" width="20" height="20" as="geometry" />
        </mxCell>
        <mxCell id="9qVkPfcaKSvjibxy3Bsk-33" style="edgeStyle=orthogonalEdgeStyle;rounded=0;orthogonalLoop=1;jettySize=auto;html=1;entryX=0;entryY=1;entryDx=0;entryDy=0;" edge="1" parent="1" source="9qVkPfcaKSvjibxy3Bsk-17">
          <mxGeometry relative="1" as="geometry">
            <mxPoint x="277.07" y="375" as="sourcePoint" />
            <mxPoint x="419.9989321881347" y="127.0710678118653" as="targetPoint" />
            <Array as="points">
              <mxPoint x="270" y="127" />
            </Array>
          </mxGeometry>
        </mxCell>
      </root>
    </mxGraphModel>
  </diagram>
</mxfile>
